<svg width="194" height="50" viewBox="0 0 194 50" fill="none" xmlns="http://www.w3.org/2000/svg">
<path d="M16.3227 6.10803C11.3425 6.89813 7.20196 9.27667 4.08215 13.1449C3.62118 13.721 2.8474 14.8403 2.73215 15.1119C2.69923 15.1777 2.62514 15.293 2.56752 15.367C2.41112 15.5399 1.46448 17.474 1.46448 17.6057C1.46448 17.6633 1.43155 17.7456 1.39039 17.7867C1.31631 17.869 0.830637 19.2682 0.60015 20.0912C0.419053 20.7414 0.246187 21.6549 0.0980172 22.6919C-0.050153 23.7866 -0.025458 26.7577 0.139176 27.7041C0.320273 28.7 0.484906 29.4736 0.608381 29.844C0.674235 30.0498 0.723625 30.2637 0.723625 30.3296C0.723625 30.453 1.10228 31.5394 1.39862 32.2719C1.62911 32.8563 2.44405 34.4694 2.58398 34.6258C2.64984 34.6916 2.69923 34.7739 2.69923 34.8068C2.69923 34.9056 3.78581 36.4611 4.28794 37.0784C5.30867 38.3211 7.02909 39.9096 8.23091 40.7161C9.97603 41.8766 12.0175 42.8478 13.6062 43.2675C15.1455 43.6708 15.4995 43.7531 15.7547 43.7531C16.0099 43.7531 16.0592 43.7202 16.1663 43.465C16.2239 43.3087 16.2815 43.07 16.2815 42.9301C16.2815 42.7902 16.3309 42.4445 16.3967 42.1647C16.4626 41.8848 16.5696 41.3005 16.6437 40.8725C16.7178 40.4445 16.833 39.8108 16.8989 39.4734C16.9565 39.1359 17.0635 38.5187 17.1376 38.1154C17.4339 36.42 17.5327 35.8603 17.6397 35.276C17.6973 34.9385 17.8126 34.3048 17.8867 33.8768C18.1912 32.1073 18.2736 31.6711 18.3888 31.1197C18.4547 30.7987 18.504 30.4777 18.504 30.3872C18.504 30.0004 18.8745 28.7494 19.1873 28.1157C19.7388 26.9799 20.9736 25.8441 22.126 25.4161C22.8586 25.1363 23.5995 24.9882 24.2662 24.9882C27.0238 24.9799 29.3699 27.3173 29.3699 30.058C29.3699 32.3213 28.0281 34.4447 25.9949 35.3994C25.0318 35.8521 24.9001 35.8685 21.7967 35.9097C20.1915 35.9344 18.8086 35.9838 18.7345 36.0249C18.6605 36.0661 18.5699 36.2389 18.5452 36.4117C18.5205 36.5763 18.4464 36.9961 18.3888 37.3335C18.323 37.671 18.2077 38.3211 18.1336 38.7738C18.0595 39.2265 17.9443 39.8273 17.8784 40.1071C17.8126 40.3869 17.7632 40.6997 17.7632 40.8067C17.7632 40.9137 17.7138 41.2511 17.648 41.5721C17.4257 42.6256 17.2693 43.465 17.2693 43.6049C17.2693 43.679 17.3269 43.8025 17.401 43.8683C17.508 43.9835 17.7879 44 19.1461 44C22.1671 44 24.5461 43.4486 27.3119 42.1235C29.8885 40.8807 32.0781 39.1277 33.8973 36.8397C34.4241 36.1895 35.1403 35.1525 35.272 34.8644C35.2967 34.7986 35.4201 34.5928 35.5354 34.4118C36.3092 33.2266 37.2476 30.7493 37.6345 28.8564C37.972 27.1939 38.0296 26.4614 37.9884 24.6096C37.972 23.622 37.9061 22.5685 37.8567 22.2722C37.6921 21.3504 37.511 20.5109 37.4204 20.2146C37.3711 20.0583 37.297 19.7949 37.264 19.6385C37.1982 19.334 36.7948 18.1653 36.5726 17.6221C36.3668 17.1283 35.5436 15.4987 35.4284 15.3588C35.3708 15.293 35.2967 15.1777 35.2637 15.1119C35.1732 14.9226 35.025 14.6839 34.8028 14.3712C34.6875 14.2148 34.5641 14.0255 34.5147 13.9514C34.1195 13.3012 32.4979 11.4741 31.7488 10.8404C31.4607 10.5935 31.1891 10.3548 31.1397 10.3054C31.0162 10.1738 30.1272 9.51534 29.6168 9.16968C27.9705 8.08329 26.143 7.21911 24.472 6.73353C23.1138 6.33848 22.5705 6.22325 22.1342 6.22325H21.7226L21.6239 6.56892C21.5745 6.76645 21.5004 7.10389 21.4675 7.33433C21.3604 8.06682 21.2123 8.88985 21.0888 9.40835C21.0229 9.68818 20.9736 10.0174 20.9736 10.1326C20.9736 10.2478 20.9242 10.577 20.8583 10.8569C20.7925 11.1367 20.6854 11.721 20.6114 12.149C20.455 13.0132 20.2986 13.935 20.1175 14.972C20.0516 15.3423 19.9364 16.0008 19.8623 16.4287C19.7882 16.8567 19.6729 17.4575 19.6071 17.7538C19.5412 18.0583 19.4918 18.3793 19.4918 18.4698C19.4918 18.692 19.212 19.8196 19.0391 20.2969C18.7592 21.0624 17.9114 22.1487 17.1458 22.7331C15.9687 23.6137 14.8492 23.8853 12.4044 23.8771C11.4824 23.8689 11.2437 23.8442 11.0626 23.7289C10.8157 23.5643 10.8074 23.4738 10.9638 22.6672C11.0791 22.0829 11.219 21.3257 11.4742 19.9019C11.5318 19.5315 11.6471 18.9225 11.7129 18.5439C11.7788 18.1735 11.894 17.5151 11.9681 17.0872C12.0422 16.6592 12.1492 16.0748 12.215 15.795C12.2809 15.5152 12.3303 15.1695 12.3303 15.0378C12.3303 14.8979 12.3879 14.6428 12.462 14.4617C12.5608 14.2148 12.6431 14.1325 12.8407 14.0914C12.9806 14.0667 14.4129 14.042 16.0345 14.042C18.7757 14.042 18.9815 14.0337 19.105 13.8938C19.1873 13.8115 19.2449 13.6551 19.2449 13.5564C19.2449 13.4576 19.2943 13.1449 19.3601 12.865C19.426 12.5852 19.5412 11.9844 19.6153 11.5318C19.6894 11.0791 19.8047 10.4289 19.8623 10.0915C19.9281 9.75402 20.0351 9.15321 20.1092 8.75816C20.1751 8.35488 20.2903 7.72939 20.3644 7.35903C20.4385 6.98043 20.4797 6.52777 20.4632 6.34671L20.4385 6.0175L18.751 6.00104C17.6315 5.99281 16.8166 6.03396 16.3227 6.10803ZM27.3119 14.2313C28.1927 14.5605 28.8348 15.0049 29.3699 15.6551C29.9543 16.3629 30.3577 17.4493 30.3577 18.3299C30.3577 18.8567 30.086 20.0994 29.9378 20.2476C29.8967 20.2969 29.8638 20.3875 29.8638 20.4615C29.8638 20.7167 29.0324 21.8607 28.4808 22.3545C27.8799 22.9059 27.1473 23.3339 26.3653 23.6137C25.9455 23.7619 25.6903 23.7866 24.6778 23.7866C23.5665 23.7866 23.4513 23.7701 23.0315 23.5726C21.0723 22.659 20.1092 20.6755 20.5949 18.5439C20.6607 18.2641 20.7678 17.6633 20.8501 17.2106C20.9242 16.7579 21.0312 16.1242 21.097 15.8115C21.1546 15.4905 21.2287 15.0707 21.2617 14.8732C21.3193 14.4206 21.4263 14.2148 21.6568 14.1243C21.7638 14.0749 22.9327 14.0584 24.3897 14.0667C26.5382 14.0914 26.9991 14.116 27.3119 14.2313ZM14.841 25.268C16.158 25.8194 16.9236 26.6589 17.3845 28.058C17.5492 28.5519 17.5574 29.6053 17.401 30.3296C17.3352 30.6259 17.2199 31.2431 17.1458 31.6958C16.9977 32.5847 16.8166 33.5888 16.6848 34.2472C16.6355 34.4694 16.5696 34.8974 16.5284 35.1937C16.4791 35.5393 16.405 35.7615 16.3144 35.8274C16.1992 35.9097 15.4172 35.9344 12.7748 35.9344C10.9144 35.9344 9.27634 35.9097 9.1364 35.885C8.79067 35.8192 8.67543 35.5311 8.78244 34.9961C8.8236 34.7657 8.92238 34.2554 8.98823 33.8521C9.24341 32.4201 9.37512 31.6876 9.49036 31.0785C9.54798 30.7411 9.66323 30.1074 9.73731 29.6794C9.90195 28.6918 10.083 27.6795 10.2312 26.8811C10.2971 26.5437 10.3629 26.0993 10.3958 25.8935C10.4205 25.6877 10.5193 25.3997 10.6016 25.2515L10.7663 24.9799L12.5196 25.0046C14.2318 25.0293 14.273 25.0376 14.841 25.268Z" fill="#4489F8"/>
<path d="M55.08 39H48.6L54.28 12.12H62.48L59.88 24.36H60.16C61.04 23.3467 62.0267 22.6267 63.12 22.2C64.24 21.7467 65.3467 21.52 66.44 21.52C67.3733 21.52 68.1467 21.6667 68.76 21.96C69.4 22.2267 69.9067 22.6 70.28 23.08C70.6533 23.56 70.92 24.1333 71.08 24.8C71.24 25.4667 71.32 26.1733 71.32 26.92C71.32 27.2933 71.2933 27.8533 71.24 28.6C71.1867 29.3467 71.0667 30.1867 70.88 31.12C70.6933 32.0267 70.4267 32.9733 70.08 33.96C69.7333 34.92 69.2667 35.8 68.68 36.6C68.12 37.4 67.4 38.0533 66.52 38.56C65.6667 39.0667 64.64 39.32 63.44 39.32C62.72 39.32 62.0133 39.24 61.32 39.08C60.6533 38.92 60.04 38.7067 59.48 38.44C58.9467 38.1733 58.4667 37.8667 58.04 37.52C57.64 37.1467 57.3467 36.7733 57.16 36.4H56.88L55.08 39ZM59.6 35.44C60.24 35.44 60.7733 35.1067 61.2 34.44C61.6267 33.7467 61.9733 32.9467 62.24 32.04C62.5067 31.1067 62.6933 30.1867 62.8 29.28C62.9333 28.3467 63 27.6533 63 27.2C63 26.6667 62.9067 26.2267 62.72 25.88C62.56 25.5333 62.2533 25.36 61.8 25.36C61.2667 25.36 60.7733 25.56 60.32 25.96C59.8667 26.3333 59.5333 26.6533 59.32 26.92L57.76 34.08C57.9467 34.4 58.1867 34.7067 58.48 35C58.8 35.2933 59.1733 35.44 59.6 35.44ZM80.1184 39H71.9984L75.6384 21.8H83.8384L80.1184 39ZM84.8784 16.56C84.8784 17.1733 84.7451 17.7067 84.4784 18.16C84.2384 18.6133 83.9051 19 83.4784 19.32C83.0784 19.64 82.6118 19.88 82.0784 20.04C81.5451 20.2 80.9984 20.28 80.4384 20.28C79.3718 20.28 78.4784 20.0267 77.7584 19.52C77.0384 19.0133 76.6784 18.2133 76.6784 17.12C76.6784 16.5333 76.7984 16.0133 77.0384 15.56C77.2784 15.08 77.5984 14.6933 77.9984 14.4C78.4251 14.08 78.9051 13.84 79.4384 13.68C79.9984 13.52 80.5718 13.44 81.1584 13.44C82.1984 13.44 83.0784 13.6933 83.7984 14.2C84.5184 14.7067 84.8784 15.4933 84.8784 16.56ZM100.757 12.12H108.957L103.237 39H96.7572L96.0372 36.44H95.7572C95.5972 36.68 95.3439 36.9733 94.9972 37.32C94.6772 37.64 94.2639 37.96 93.7572 38.28C93.2505 38.5733 92.6505 38.8133 91.9572 39C91.2639 39.2133 90.4639 39.32 89.5572 39.32C88.6239 39.32 87.8239 39.1867 87.1572 38.92C86.5172 38.6267 85.9839 38.24 85.5572 37.76C85.1572 37.28 84.8639 36.7067 84.6772 36.04C84.4905 35.3467 84.3972 34.6 84.3972 33.8C84.3972 33.4533 84.4239 32.9067 84.4772 32.16C84.5305 31.3867 84.6505 30.5467 84.8372 29.64C85.0505 28.7067 85.3439 27.76 85.7172 26.8C86.1172 25.8133 86.6372 24.92 87.2772 24.12C87.9439 23.32 88.7572 22.6667 89.7172 22.16C90.6772 21.6267 91.8372 21.36 93.1972 21.36C93.6239 21.36 94.0772 21.4 94.5572 21.48C95.0372 21.56 95.4905 21.7067 95.9172 21.92C96.3705 22.1333 96.7705 22.44 97.1172 22.84C97.4639 23.24 97.7172 23.76 97.8772 24.4H98.1572L100.757 12.12ZM95.8772 25.28C95.2372 25.28 94.7039 25.64 94.2772 26.36C93.8505 27.0533 93.5039 27.8667 93.2372 28.8C92.9705 29.7333 92.7705 30.6667 92.6372 31.6C92.5305 32.5333 92.4772 33.2267 92.4772 33.68C92.4772 34.2133 92.5572 34.6667 92.7172 35.04C92.8772 35.3867 93.1839 35.56 93.6372 35.56C93.9039 35.56 94.1572 35.5067 94.3972 35.4C94.6639 35.2667 94.9039 35.12 95.1172 34.96C95.3572 34.7733 95.5572 34.5867 95.7172 34.4C95.8772 34.2133 96.0105 34.0533 96.1172 33.92L97.6772 26.64C97.4905 26.3467 97.2372 26.0533 96.9172 25.76C96.6239 25.44 96.2772 25.28 95.8772 25.28ZM108.563 21.8H117.043L118.443 33.56L123.283 21.8H130.923L132.283 33.56L137.123 21.8H141.363L133.403 39H125.043L123.563 30.28L119.523 39H111.163L108.563 21.8ZM148.165 39H140.045L143.685 21.8H151.885L148.165 39ZM152.925 16.56C152.925 17.1733 152.792 17.7067 152.525 18.16C152.285 18.6133 151.952 19 151.525 19.32C151.125 19.64 150.659 19.88 150.125 20.04C149.592 20.2 149.045 20.28 148.485 20.28C147.419 20.28 146.525 20.0267 145.805 19.52C145.085 19.0133 144.725 18.2133 144.725 17.12C144.725 16.5333 144.845 16.0133 145.085 15.56C145.325 15.08 145.645 14.6933 146.045 14.4C146.472 14.08 146.952 13.84 147.485 13.68C148.045 13.52 148.619 13.44 149.205 13.44C150.245 13.44 151.125 13.6933 151.845 14.2C152.565 14.7067 152.925 15.4933 152.925 16.56ZM164.444 26.84C164.471 26.7067 164.497 26.5733 164.524 26.44C164.551 26.3067 164.564 26.16 164.564 26C164.564 25.52 164.471 25.08 164.284 24.68C164.124 24.2533 163.791 24.04 163.284 24.04C162.831 24.04 162.377 24.24 161.924 24.64C161.471 25.0133 161.244 25.52 161.244 26.16C161.244 26.5867 161.351 26.9333 161.564 27.2C161.804 27.44 162.111 27.64 162.484 27.8C162.857 27.96 163.271 28.0933 163.724 28.2C164.204 28.3067 164.671 28.4133 165.124 28.52C165.764 28.68 166.364 28.88 166.924 29.12C167.511 29.3333 168.031 29.6267 168.484 30C168.937 30.3733 169.297 30.84 169.564 31.4C169.831 31.9333 169.964 32.6 169.964 33.4C169.964 34.52 169.697 35.4667 169.164 36.24C168.657 36.9867 167.937 37.6 167.004 38.08C166.097 38.5333 165.017 38.8533 163.764 39.04C162.537 39.2267 161.217 39.32 159.804 39.32C157.644 39.32 155.857 39.16 154.444 38.84C153.031 38.52 152.044 38.2133 151.484 37.92L152.324 33.92H157.724C157.697 34.0533 157.684 34.1867 157.684 34.32C157.684 34.4267 157.684 34.5467 157.684 34.68C157.684 35.2933 157.817 35.7867 158.084 36.16C158.377 36.5067 158.871 36.68 159.564 36.68C160.337 36.68 160.884 36.4667 161.204 36.04C161.551 35.5867 161.724 35.1733 161.724 34.8C161.724 34.4267 161.577 34.1067 161.284 33.84C161.017 33.5467 160.671 33.3067 160.244 33.12C159.817 32.9067 159.337 32.7333 158.804 32.6C158.297 32.44 157.804 32.2933 157.324 32.16C156.977 32.08 156.577 31.9467 156.124 31.76C155.697 31.5733 155.284 31.3067 154.884 30.96C154.484 30.6133 154.151 30.1733 153.884 29.64C153.617 29.08 153.484 28.3867 153.484 27.56C153.484 26.3867 153.764 25.4133 154.324 24.64C154.911 23.84 155.657 23.2 156.564 22.72C157.497 22.24 158.537 21.8933 159.684 21.68C160.857 21.4667 162.031 21.36 163.204 21.36C164.671 21.36 166.057 21.4933 167.364 21.76C168.671 22.0267 169.737 22.3733 170.564 22.8L169.644 26.84H164.444ZM180.22 30.96C180.113 31.5467 180.033 32.1067 179.98 32.64C179.953 33.1733 179.94 33.6533 179.94 34.08C179.94 34.32 179.953 34.5867 179.98 34.88C180.007 35.1733 180.06 35.4533 180.14 35.72C180.247 35.96 180.38 36.1733 180.54 36.36C180.727 36.52 180.98 36.6 181.3 36.6C181.54 36.6 181.807 36.52 182.1 36.36C182.42 36.2 182.727 35.9733 183.02 35.68C183.34 35.3867 183.633 35.0267 183.9 34.6C184.193 34.1733 184.42 33.6933 184.58 33.16H191.14L190.1 37.44C189.567 37.7867 188.953 38.08 188.26 38.32C187.567 38.56 186.833 38.76 186.06 38.92C185.287 39.0533 184.5 39.1467 183.7 39.2C182.9 39.28 182.14 39.32 181.42 39.32C180.087 39.32 178.847 39.2 177.7 38.96C176.553 38.72 175.553 38.3067 174.7 37.72C173.847 37.1333 173.167 36.36 172.66 35.4C172.18 34.4133 171.94 33.2 171.94 31.76C171.94 30.4533 172.14 29.1733 172.54 27.92C172.967 26.6667 173.66 25.56 174.62 24.6C175.607 23.6133 176.913 22.8267 178.54 22.24C180.193 21.6533 182.247 21.36 184.7 21.36C187.367 21.36 189.367 21.7733 190.7 22.6C192.06 23.4267 192.74 24.72 192.74 26.48C192.74 27.2 192.633 27.9867 192.42 28.84C192.207 29.6667 191.887 30.3733 191.46 30.96H180.22ZM185.54 26.2C185.54 25.3733 185.407 24.8133 185.14 24.52C184.873 24.2267 184.553 24.08 184.18 24.08C183.753 24.08 183.353 24.2267 182.98 24.52C182.633 24.7867 182.313 25.16 182.02 25.64C181.727 26.0933 181.46 26.6267 181.22 27.24C180.98 27.8267 180.78 28.4533 180.62 29.12H185.18C185.233 28.8 185.287 28.4667 185.34 28.12C185.393 27.8267 185.433 27.5067 185.46 27.16C185.513 26.8133 185.54 26.4933 185.54 26.2Z" fill="black"/>
</svg>
