<svg width="145" height="28" viewBox="0 0 145 28" fill="none" xmlns="http://www.w3.org/2000/svg">
<path d="M7.08 27H0.6L6.28 0.119998H14.48L11.88 12.36H12.16C13.04 11.3467 14.0267 10.6267 15.12 10.2C16.24 9.74667 17.3467 9.52 18.44 9.52C19.3733 9.52 20.1467 9.66667 20.76 9.96C21.4 10.2267 21.9067 10.6 22.28 11.08C22.6533 11.56 22.92 12.1333 23.08 12.8C23.24 13.4667 23.32 14.1733 23.32 14.92C23.32 15.2933 23.2933 15.8533 23.24 16.6C23.1867 17.3467 23.0667 18.1867 22.88 19.12C22.6933 20.0267 22.4267 20.9733 22.08 21.96C21.7333 22.92 21.2667 23.8 20.68 24.6C20.12 25.4 19.4 26.0533 18.52 26.56C17.6667 27.0667 16.64 27.32 15.44 27.32C14.72 27.32 14.0133 27.24 13.32 27.08C12.6533 26.92 12.04 26.7067 11.48 26.44C10.9467 26.1733 10.4667 25.8667 10.04 25.52C9.64 25.1467 9.34667 24.7733 9.16 24.4H8.88L7.08 27ZM11.6 23.44C12.24 23.44 12.7733 23.1067 13.2 22.44C13.6267 21.7467 13.9733 20.9467 14.24 20.04C14.5067 19.1067 14.6933 18.1867 14.8 17.28C14.9333 16.3467 15 15.6533 15 15.2C15 14.6667 14.9067 14.2267 14.72 13.88C14.56 13.5333 14.2533 13.36 13.8 13.36C13.2667 13.36 12.7733 13.56 12.32 13.96C11.8667 14.3333 11.5333 14.6533 11.32 14.92L9.76 22.08C9.94667 22.4 10.1867 22.7067 10.48 23C10.8 23.2933 11.1733 23.44 11.6 23.44ZM32.1184 27H23.9984L27.6384 9.8H35.8384L32.1184 27ZM36.8784 4.56C36.8784 5.17333 36.7451 5.70667 36.4784 6.16C36.2384 6.61333 35.9051 7 35.4784 7.32C35.0784 7.64 34.6118 7.88 34.0784 8.04C33.5451 8.2 32.9984 8.28 32.4384 8.28C31.3718 8.28 30.4784 8.02667 29.7584 7.52C29.0384 7.01333 28.6784 6.21333 28.6784 5.12C28.6784 4.53333 28.7984 4.01333 29.0384 3.56C29.2784 3.08 29.5984 2.69333 29.9984 2.4C30.4251 2.08 30.9051 1.84 31.4384 1.68C31.9984 1.52 32.5718 1.44 33.1584 1.44C34.1984 1.44 35.0784 1.69333 35.7984 2.2C36.5184 2.70667 36.8784 3.49333 36.8784 4.56ZM52.7572 0.119998H60.9572L55.2372 27H48.7572L48.0372 24.44H47.7572C47.5972 24.68 47.3439 24.9733 46.9972 25.32C46.6772 25.64 46.2639 25.96 45.7572 26.28C45.2505 26.5733 44.6505 26.8133 43.9572 27C43.2639 27.2133 42.4639 27.32 41.5572 27.32C40.6239 27.32 39.8239 27.1867 39.1572 26.92C38.5172 26.6267 37.9839 26.24 37.5572 25.76C37.1572 25.28 36.8639 24.7067 36.6772 24.04C36.4905 23.3467 36.3972 22.6 36.3972 21.8C36.3972 21.4533 36.4239 20.9067 36.4772 20.16C36.5305 19.3867 36.6505 18.5467 36.8372 17.64C37.0505 16.7067 37.3439 15.76 37.7172 14.8C38.1172 13.8133 38.6372 12.92 39.2772 12.12C39.9439 11.32 40.7572 10.6667 41.7172 10.16C42.6772 9.62667 43.8372 9.36 45.1972 9.36C45.6239 9.36 46.0772 9.4 46.5572 9.48C47.0372 9.56 47.4905 9.70667 47.9172 9.92C48.3705 10.1333 48.7705 10.44 49.1172 10.84C49.4639 11.24 49.7172 11.76 49.8772 12.4H50.1572L52.7572 0.119998ZM47.8772 13.28C47.2372 13.28 46.7039 13.64 46.2772 14.36C45.8505 15.0533 45.5039 15.8667 45.2372 16.8C44.9705 17.7333 44.7705 18.6667 44.6372 19.6C44.5305 20.5333 44.4772 21.2267 44.4772 21.68C44.4772 22.2133 44.5572 22.6667 44.7172 23.04C44.8772 23.3867 45.1839 23.56 45.6372 23.56C45.9039 23.56 46.1572 23.5067 46.3972 23.4C46.6639 23.2667 46.9039 23.12 47.1172 22.96C47.3572 22.7733 47.5572 22.5867 47.7172 22.4C47.8772 22.2133 48.0105 22.0533 48.1172 21.92L49.6772 14.64C49.4905 14.3467 49.2372 14.0533 48.9172 13.76C48.6239 13.44 48.2772 13.28 47.8772 13.28ZM60.5631 9.8H69.0431L70.4431 21.56L75.2831 9.8H82.9231L84.2831 21.56L89.1231 9.8H93.3631L85.4031 27H77.0431L75.5631 18.28L71.5231 27H63.1631L60.5631 9.8ZM100.165 27H92.0453L95.6853 9.8H103.885L100.165 27ZM104.925 4.56C104.925 5.17333 104.792 5.70667 104.525 6.16C104.285 6.61333 103.952 7 103.525 7.32C103.125 7.64 102.659 7.88 102.125 8.04C101.592 8.2 101.045 8.28 100.485 8.28C99.4186 8.28 98.5253 8.02667 97.8053 7.52C97.0853 7.01333 96.7253 6.21333 96.7253 5.12C96.7253 4.53333 96.8453 4.01333 97.0853 3.56C97.3253 3.08 97.6453 2.69333 98.0453 2.4C98.472 2.08 98.952 1.84 99.4853 1.68C100.045 1.52 100.619 1.44 101.205 1.44C102.245 1.44 103.125 1.69333 103.845 2.2C104.565 2.70667 104.925 3.49333 104.925 4.56ZM116.444 14.84C116.471 14.7067 116.497 14.5733 116.524 14.44C116.551 14.3067 116.564 14.16 116.564 14C116.564 13.52 116.471 13.08 116.284 12.68C116.124 12.2533 115.791 12.04 115.284 12.04C114.831 12.04 114.377 12.24 113.924 12.64C113.471 13.0133 113.244 13.52 113.244 14.16C113.244 14.5867 113.351 14.9333 113.564 15.2C113.804 15.44 114.111 15.64 114.484 15.8C114.857 15.96 115.271 16.0933 115.724 16.2C116.204 16.3067 116.671 16.4133 117.124 16.52C117.764 16.68 118.364 16.88 118.924 17.12C119.511 17.3333 120.031 17.6267 120.484 18C120.937 18.3733 121.297 18.84 121.564 19.4C121.831 19.9333 121.964 20.6 121.964 21.4C121.964 22.52 121.697 23.4667 121.164 24.24C120.657 24.9867 119.937 25.6 119.004 26.08C118.097 26.5333 117.017 26.8533 115.764 27.04C114.537 27.2267 113.217 27.32 111.804 27.32C109.644 27.32 107.857 27.16 106.444 26.84C105.031 26.52 104.044 26.2133 103.484 25.92L104.324 21.92H109.724C109.697 22.0533 109.684 22.1867 109.684 22.32C109.684 22.4267 109.684 22.5467 109.684 22.68C109.684 23.2933 109.817 23.7867 110.084 24.16C110.377 24.5067 110.871 24.68 111.564 24.68C112.337 24.68 112.884 24.4667 113.204 24.04C113.551 23.5867 113.724 23.1733 113.724 22.8C113.724 22.4267 113.577 22.1067 113.284 21.84C113.017 21.5467 112.671 21.3067 112.244 21.12C111.817 20.9067 111.337 20.7333 110.804 20.6C110.297 20.44 109.804 20.2933 109.324 20.16C108.977 20.08 108.577 19.9467 108.124 19.76C107.697 19.5733 107.284 19.3067 106.884 18.96C106.484 18.6133 106.151 18.1733 105.884 17.64C105.617 17.08 105.484 16.3867 105.484 15.56C105.484 14.3867 105.764 13.4133 106.324 12.64C106.911 11.84 107.657 11.2 108.564 10.72C109.497 10.24 110.537 9.89333 111.684 9.68C112.857 9.46667 114.031 9.36 115.204 9.36C116.671 9.36 118.057 9.49333 119.364 9.76C120.671 10.0267 121.737 10.3733 122.564 10.8L121.644 14.84H116.444ZM132.22 18.96C132.113 19.5467 132.033 20.1067 131.98 20.64C131.953 21.1733 131.94 21.6533 131.94 22.08C131.94 22.32 131.953 22.5867 131.98 22.88C132.007 23.1733 132.06 23.4533 132.14 23.72C132.247 23.96 132.38 24.1733 132.54 24.36C132.727 24.52 132.98 24.6 133.3 24.6C133.54 24.6 133.807 24.52 134.1 24.36C134.42 24.2 134.727 23.9733 135.02 23.68C135.34 23.3867 135.633 23.0267 135.9 22.6C136.193 22.1733 136.42 21.6933 136.58 21.16H143.14L142.1 25.44C141.567 25.7867 140.953 26.08 140.26 26.32C139.567 26.56 138.833 26.76 138.06 26.92C137.287 27.0533 136.5 27.1467 135.7 27.2C134.9 27.28 134.14 27.32 133.42 27.32C132.087 27.32 130.847 27.2 129.7 26.96C128.553 26.72 127.553 26.3067 126.7 25.72C125.847 25.1333 125.167 24.36 124.66 23.4C124.18 22.4133 123.94 21.2 123.94 19.76C123.94 18.4533 124.14 17.1733 124.54 15.92C124.967 14.6667 125.66 13.56 126.62 12.6C127.607 11.6133 128.913 10.8267 130.54 10.24C132.193 9.65333 134.247 9.36 136.7 9.36C139.367 9.36 141.367 9.77333 142.7 10.6C144.06 11.4267 144.74 12.72 144.74 14.48C144.74 15.2 144.633 15.9867 144.42 16.84C144.207 17.6667 143.887 18.3733 143.46 18.96H132.22ZM137.54 14.2C137.54 13.3733 137.407 12.8133 137.14 12.52C136.873 12.2267 136.553 12.08 136.18 12.08C135.753 12.08 135.353 12.2267 134.98 12.52C134.633 12.7867 134.313 13.16 134.02 13.64C133.727 14.0933 133.46 14.6267 133.22 15.24C132.98 15.8267 132.78 16.4533 132.62 17.12H137.18C137.233 16.8 137.287 16.4667 137.34 16.12C137.393 15.8267 137.433 15.5067 137.46 15.16C137.513 14.8133 137.54 14.4933 137.54 14.2Z" fill="black"/>
</svg>
