<svg width="38" height="38" viewBox="0 0 38 38" fill="none" xmlns="http://www.w3.org/2000/svg">
<path d="M16.3227 0.10803C11.3425 0.898132 7.20196 3.27667 4.08215 7.14488C3.62118 7.72099 2.8474 8.8403 2.73215 9.1119C2.69923 9.17774 2.62514 9.29296 2.56752 9.36704C2.41112 9.53987 1.46448 11.474 1.46448 11.6057C1.46448 11.6633 1.43155 11.7456 1.39039 11.7867C1.31631 11.869 0.830637 13.2682 0.60015 14.0912C0.419053 14.7414 0.246187 15.6549 0.0980172 16.6919C-0.050153 17.7866 -0.025458 20.7577 0.139176 21.7041C0.320273 22.7 0.484906 23.4736 0.608381 23.844C0.674235 24.0498 0.723625 24.2637 0.723625 24.3296C0.723625 24.453 1.10228 25.5394 1.39862 26.2719C1.62911 26.8563 2.44405 28.4694 2.58398 28.6258C2.64984 28.6916 2.69923 28.7739 2.69923 28.8068C2.69923 28.9056 3.78581 30.4611 4.28794 31.0784C5.30867 32.3211 7.02909 33.9096 8.23091 34.7161C9.97603 35.8766 12.0175 36.8478 13.6062 37.2675C15.1455 37.6708 15.4995 37.7531 15.7547 37.7531C16.0099 37.7531 16.0592 37.7202 16.1663 37.465C16.2239 37.3087 16.2815 37.07 16.2815 36.9301C16.2815 36.7902 16.3309 36.4445 16.3967 36.1647C16.4626 35.8848 16.5696 35.3005 16.6437 34.8725C16.7178 34.4445 16.833 33.8108 16.8989 33.4734C16.9565 33.1359 17.0635 32.5187 17.1376 32.1154C17.4339 30.42 17.5327 29.8603 17.6397 29.276C17.6973 28.9385 17.8126 28.3048 17.8867 27.8768C18.1912 26.1073 18.2736 25.6711 18.3888 25.1197C18.4547 24.7987 18.504 24.4777 18.504 24.3872C18.504 24.0004 18.8745 22.7494 19.1873 22.1157C19.7388 20.9799 20.9736 19.8441 22.126 19.4161C22.8586 19.1363 23.5995 18.9882 24.2662 18.9882C27.0238 18.9799 29.3699 21.3173 29.3699 24.058C29.3699 26.3213 28.0281 28.4447 25.9949 29.3994C25.0318 29.8521 24.9001 29.8685 21.7967 29.9097C20.1915 29.9344 18.8086 29.9838 18.7345 30.0249C18.6605 30.0661 18.5699 30.2389 18.5452 30.4117C18.5205 30.5763 18.4464 30.9961 18.3888 31.3335C18.323 31.671 18.2077 32.3211 18.1336 32.7738C18.0595 33.2265 17.9443 33.8273 17.8784 34.1071C17.8126 34.3869 17.7632 34.6997 17.7632 34.8067C17.7632 34.9137 17.7138 35.2511 17.648 35.5721C17.4257 36.6256 17.2693 37.465 17.2693 37.6049C17.2693 37.679 17.3269 37.8025 17.401 37.8683C17.508 37.9835 17.7879 38 19.1461 38C22.1671 38 24.5461 37.4486 27.3119 36.1235C29.8885 34.8807 32.0781 33.1277 33.8973 30.8397C34.4241 30.1895 35.1403 29.1525 35.272 28.8644C35.2967 28.7986 35.4201 28.5928 35.5354 28.4118C36.3092 27.2266 37.2476 24.7493 37.6345 22.8564C37.972 21.1939 38.0296 20.4614 37.9884 18.6096C37.972 17.622 37.9061 16.5685 37.8567 16.2722C37.6921 15.3504 37.511 14.5109 37.4204 14.2146C37.3711 14.0583 37.297 13.7949 37.264 13.6385C37.1982 13.334 36.7948 12.1653 36.5726 11.6221C36.3668 11.1283 35.5436 9.49872 35.4284 9.35881C35.3708 9.29296 35.2967 9.17774 35.2637 9.1119C35.1732 8.9226 35.025 8.68393 34.8028 8.37118C34.6875 8.2148 34.5641 8.02551 34.5147 7.95144C34.1195 7.30125 32.4979 5.47414 31.7488 4.84041C31.4607 4.5935 31.1891 4.35483 31.1397 4.30545C31.0162 4.17376 30.1272 3.51534 29.6168 3.16968C27.9705 2.08329 26.143 1.21911 24.472 0.733528C23.1138 0.338477 22.5705 0.223254 22.1342 0.223254H21.7226L21.6239 0.568923C21.5745 0.766449 21.5004 1.10389 21.4675 1.33433C21.3604 2.06682 21.2123 2.88985 21.0888 3.40835C21.0229 3.68818 20.9736 4.01739 20.9736 4.13261C20.9736 4.24784 20.9242 4.57704 20.8583 4.85687C20.7925 5.1367 20.6854 5.72105 20.6114 6.14902C20.455 7.01319 20.2986 7.93498 20.1175 8.97199C20.0516 9.34235 19.9364 10.0008 19.8623 10.4287C19.7882 10.8567 19.6729 11.4575 19.6071 11.7538C19.5412 12.0583 19.4918 12.3793 19.4918 12.4698C19.4918 12.692 19.212 13.8196 19.0391 14.2969C18.7592 15.0624 17.9114 16.1487 17.1458 16.7331C15.9687 17.6137 14.8492 17.8853 12.4044 17.8771C11.4824 17.8689 11.2437 17.8442 11.0626 17.7289C10.8157 17.5643 10.8074 17.4738 10.9638 16.6672C11.0791 16.0829 11.219 15.3257 11.4742 13.9019C11.5318 13.5315 11.6471 12.9225 11.7129 12.5439C11.7788 12.1735 11.894 11.5151 11.9681 11.0872C12.0422 10.6592 12.1492 10.0748 12.215 9.79501C12.2809 9.51518 12.3303 9.16951 12.3303 9.03783C12.3303 8.89791 12.3879 8.64278 12.462 8.46171C12.5608 8.2148 12.6431 8.1325 12.8407 8.09135C12.9806 8.06666 14.4129 8.04197 16.0345 8.04197C18.7757 8.04197 18.9815 8.03374 19.105 7.89383C19.1873 7.81152 19.2449 7.65515 19.2449 7.55639C19.2449 7.45762 19.2943 7.14488 19.3601 6.86505C19.426 6.58522 19.5412 5.98441 19.6153 5.53175C19.6894 5.07909 19.8047 4.4289 19.8623 4.09146C19.9281 3.75402 20.0351 3.15321 20.1092 2.75816C20.1751 2.35488 20.2903 1.72939 20.3644 1.35903C20.4385 0.980435 20.4797 0.527772 20.4632 0.346707L20.4385 0.0174979L18.751 0.00103743C17.6315 -0.0071928 16.8166 0.0339583 16.3227 0.10803ZM27.3119 8.23127C28.1927 8.56047 28.8348 9.00491 29.3699 9.65509C29.9543 10.3629 30.3577 11.4493 30.3577 12.3299C30.3577 12.8567 30.086 14.0994 29.9378 14.2476C29.8967 14.2969 29.8638 14.3875 29.8638 14.4615C29.8638 14.7167 29.0324 15.8607 28.4808 16.3545C27.8799 16.9059 27.1473 17.3339 26.3653 17.6137C25.9455 17.7619 25.6903 17.7866 24.6778 17.7866C23.5665 17.7866 23.4513 17.7701 23.0315 17.5726C21.0723 16.659 20.1092 14.6755 20.5949 12.5439C20.6607 12.2641 20.7678 11.6633 20.8501 11.2106C20.9242 10.7579 21.0312 10.1242 21.097 9.81147C21.1546 9.49049 21.2287 9.07075 21.2617 8.87322C21.3193 8.42056 21.4263 8.2148 21.6568 8.12427C21.7638 8.07489 22.9327 8.05843 24.3897 8.06666C26.5382 8.09135 26.9991 8.11604 27.3119 8.23127ZM14.841 19.268C16.158 19.8194 16.9236 20.6589 17.3845 22.058C17.5492 22.5519 17.5574 23.6053 17.401 24.3296C17.3352 24.6259 17.2199 25.2431 17.1458 25.6958C16.9977 26.5847 16.8166 27.5888 16.6848 28.2472C16.6355 28.4694 16.5696 28.8974 16.5284 29.1937C16.4791 29.5393 16.405 29.7615 16.3144 29.8274C16.1992 29.9097 15.4172 29.9344 12.7748 29.9344C10.9144 29.9344 9.27634 29.9097 9.1364 29.885C8.79067 29.8192 8.67543 29.5311 8.78244 28.9961C8.8236 28.7657 8.92238 28.2554 8.98823 27.8521C9.24341 26.4201 9.37512 25.6876 9.49036 25.0785C9.54798 24.7411 9.66323 24.1074 9.73731 23.6794C9.90195 22.6918 10.083 21.6795 10.2312 20.8811C10.2971 20.5437 10.3629 20.0993 10.3958 19.8935C10.4205 19.6877 10.5193 19.3997 10.6016 19.2515L10.7663 18.9799L12.5196 19.0046C14.2318 19.0293 14.273 19.0376 14.841 19.268Z" fill="#4489F8"/>
</svg>
